<?xml version="1.0" standalone="no"?>
<!DOCTYPE svg PUBLIC "-//W3C//DTD SVG 20010904//EN"
 "http://www.w3.org/TR/2001/REC-SVG-20010904/DTD/svg10.dtd">
<svg version="1.0" xmlns="http://www.w3.org/2000/svg"
 width="512.000000pt" height="512.000000pt" viewBox="0 0 512.000000 512.000000"
 preserveAspectRatio="xMidYMid meet">
<metadata>
Created by potrace 1.14, written by Peter Selinger 2001-2017
</metadata>
<g transform="translate(0.000000,512.000000) scale(0.100000,-0.100000)"
fill="#000000" stroke="none">
<path d="M0 2560 l0 -2560 2560 0 2560 0 0 2560 0 2560 -2560 0 -2560 0 0
-2560z m4630 1273 l0 -713 -134 0 -135 0 -6 53 -7 52 -42 -41 c-73 -70 -125
-89 -241 -89 -89 0 -105 3 -151 27 -143 76 -215 241 -216 498 0 211 42 340
147 445 69 70 129 97 227 103 96 6 156 -10 214 -55 l44 -33 0 248 0 247 150
-14 150 -15 0 -713z m-3369 507 l-15 -110 -263 0 -263 0 0 -180 0 -180 235 0
235 0 0 -110 0 -110 -235 0 -235 0 0 -265 0 -266 -157 3 -158 3 -3 663 -2 662
438 0 438 0 -15 -110z m1104 -183 c47 -13 50 -15 47 -43 -2 -16 -14 -112 -28
-213 -13 -101 -24 -185 -24 -187 0 -2 -43 -4 -95 -4 l-95 0 0 96 c0 94 0 95
-22 89 -74 -23 -147 -97 -194 -201 -34 -72 -34 -73 -34 -223 l0 -151 100 0
100 0 0 -100 0 -100 -320 0 -320 0 0 100 0 100 65 0 65 0 0 310 0 310 -65 0
-65 0 0 100 0 100 184 0 184 0 27 -111 28 -111 26 49 c57 103 114 156 201 186
55 20 168 21 235 4z m828 -2 c221 -57 347 -244 347 -515 0 -110 33 -100 -336
-100 l-324 0 0 -22 c1 -31 36 -107 63 -136 76 -81 219 -89 370 -20 37 17 69
29 70 27 2 -2 29 -39 61 -82 l57 -78 -23 -20 c-40 -34 -165 -89 -235 -104 -37
-8 -106 -15 -153 -15 -265 0 -444 135 -506 380 -23 92 -15 281 15 370 54 157
174 274 322 314 71 19 201 20 272 1z m-2553 -2145 l0 -260 48 37 c85 65 124
78 242 78 88 0 111 -3 145 -22 49 -26 76 -54 106 -113 l24 -45 3 -432 3 -433
-150 0 -150 0 -3 378 c-3 424 -4 430 -69 446 -49 12 -117 -21 -164 -78 l-35
-43 -2 -349 -3 -349 -153 -3 -152 -3 2 713 3 713 105 11 c58 6 126 12 153 13
l47 1 0 -260z m2502 -338 c3 -642 -1 -611 80 -633 40 -11 132 -2 181 17 20 7
93 -196 75 -208 -38 -24 -152 -51 -241 -55 -119 -7 -200 12 -267 61 -53 38
-102 123 -119 204 -7 34 -11 215 -11 512 l0 460 -150 0 -150 0 0 105 0 105
300 0 299 0 3 -568z m-1087 184 c168 -45 284 -166 332 -349 22 -85 22 -271 -1
-356 -63 -233 -229 -361 -467 -361 -103 0 -172 14 -247 51 -163 79 -251 252
-252 490 0 109 23 217 66 300 52 104 176 201 291 228 59 14 222 12 278 -3z
m2153 -6 c18 -11 42 -36 53 -55 l21 -35 38 34 c57 51 97 69 170 73 106 7 178
-43 211 -146 8 -24 14 -176 16 -468 l5 -433 -136 0 -136 0 0 394 c0 345 -2
397 -16 410 -19 20 -37 20 -74 1 -61 -32 -60 -24 -60 -432 l0 -373 -104 0
-105 0 -3 393 c-3 435 -3 434 -62 423 -17 -4 -45 -21 -63 -38 l-33 -32 0 -373
0 -373 -130 0 -130 0 0 510 0 511 112 -3 112 -3 9 -44 9 -44 46 46 c26 25 63
53 82 61 51 22 128 20 168 -4z"/>
<path d="M4120 3932 c-40 -20 -75 -67 -93 -126 -20 -66 -16 -319 6 -382 43
-125 160 -146 255 -48 l42 44 0 216 c0 246 -2 254 -83 293 -53 26 -81 26 -127
3z"/>
<path d="M3006 3960 c-57 -17 -108 -87 -121 -165 -4 -22 -9 -48 -12 -57 -4
-17 9 -18 183 -18 l187 0 -6 56 c-15 143 -111 220 -231 184z"/>
<path d="M1840 1628 c-57 -29 -86 -85 -101 -193 -20 -148 6 -317 59 -373 56
-60 164 -63 223 -6 44 42 60 103 66 244 10 226 -40 334 -158 347 -33 3 -55 -2
-89 -19z"/>
</g>
</svg>
